<svg width="46" height="39" viewBox="0 0 46 39" fill="none" xmlns="http://www.w3.org/2000/svg">
<path d="M14.3428 18.2344C14.3545 18.4102 14.3193 18.5801 14.2373 18.7441C14.167 18.9082 14.1025 19.0547 14.0439 19.1836L13.4814 19.7812L13.1475 20.7832C13.0186 20.877 12.8779 20.9707 12.7256 21.0645C12.585 21.1465 12.4561 21.2344 12.3389 21.3281C12.21 21.4336 12.0928 21.5508 11.9873 21.6797C11.8936 21.8086 11.7881 21.9199 11.6709 22.0137C11.5537 22.1074 11.4131 22.1895 11.249 22.2598C11.0967 22.3184 10.9561 22.3887 10.8271 22.4707C10.5928 22.6113 10.3701 22.7578 10.1592 22.9102C9.95996 23.0625 9.74902 23.209 9.52637 23.3496C9.46777 23.373 9.4209 23.4023 9.38574 23.4375C9.3623 23.4609 9.32129 23.4844 9.2627 23.5078C9.22754 23.5312 9.0752 23.5781 8.80566 23.6484C8.53613 23.7188 8.2373 23.8008 7.90918 23.8945C7.59277 23.9766 7.29395 24.0527 7.0127 24.123C6.73145 24.1934 6.57324 24.2285 6.53809 24.2285C6.32715 24.252 6.11035 24.2637 5.8877 24.2637C5.66504 24.2637 5.44238 24.2695 5.21973 24.2812L4.95605 24.4395C4.82715 24.3457 4.68652 24.2578 4.53418 24.1758C4.38184 24.0938 4.25293 24.0059 4.14746 23.9121C4.03027 23.8066 3.91309 23.6895 3.7959 23.5605C3.67871 23.4199 3.57324 23.291 3.47949 23.1738C3.4209 23.0098 3.3623 22.8516 3.30371 22.6992C3.24512 22.5352 3.19824 22.377 3.16309 22.2246L3.0752 21.5566C3.05176 21.334 3.02832 21.1172 3.00488 20.9062C2.99316 20.6953 2.97559 20.4785 2.95215 20.2559C3.15137 19.7051 3.32715 19.1543 3.47949 18.6035C3.64355 18.041 3.84277 17.4902 4.07715 16.9512C4.13574 16.8223 4.18848 16.6934 4.23535 16.5645C4.29395 16.4238 4.35254 16.2891 4.41113 16.1602C4.48145 16.0195 4.55762 15.8906 4.63965 15.7734C4.72168 15.6445 4.79199 15.5156 4.85059 15.3867C4.90918 15.2461 4.95605 15.1055 4.99121 14.9648C5.02637 14.8125 5.07324 14.6719 5.13184 14.543C5.16699 14.4727 5.22559 14.373 5.30762 14.2441C5.38965 14.1035 5.47754 13.9629 5.57129 13.8223C5.66504 13.6699 5.75293 13.5234 5.83496 13.3828C5.92871 13.2422 6.00488 13.1309 6.06348 13.0488C6.15723 12.9316 6.25098 12.8203 6.34473 12.7148C6.43848 12.6094 6.51465 12.4922 6.57324 12.3633C6.69043 12.1641 6.80176 11.9121 6.90723 11.6074C7.0127 11.3027 7.12988 11.0332 7.25879 10.7988C7.39941 10.541 7.56348 10.3008 7.75098 10.0781C7.9502 9.84375 8.13184 9.60352 8.2959 9.35742C8.47168 9.11133 8.6416 8.8418 8.80566 8.54883L9.5791 7.98633L9.93066 8.33789L10.7744 8.19727L11.3018 8.98828C11.2783 9.16406 11.249 9.36328 11.2139 9.58594C11.1904 9.80859 11.167 10.0371 11.1436 10.2715C11.1318 10.4941 11.1201 10.7168 11.1084 10.9395C11.1084 11.1504 11.1201 11.3379 11.1436 11.502C11.085 11.7129 10.9971 11.9355 10.8799 12.1699C10.7744 12.3926 10.6514 12.5859 10.5107 12.75L10.4404 13.6992L9.7373 14.332L9.64941 15.2285L9.05176 15.9316C9.0166 16.0957 8.98145 16.2656 8.94629 16.4414C8.91113 16.6055 8.86426 16.7637 8.80566 16.916C8.74707 17.0566 8.67676 17.2031 8.59473 17.3555C8.5127 17.4961 8.43066 17.6426 8.34863 17.7949C8.11426 17.9941 7.87402 18.2168 7.62793 18.4629C7.38184 18.709 7.15918 18.9551 6.95996 19.2012C6.85449 19.3301 6.75488 19.4707 6.66113 19.623C6.5791 19.7637 6.49121 19.8984 6.39746 20.0273C6.09277 20.4141 5.76465 20.7773 5.41309 21.1172C5.06152 21.457 4.71582 21.8086 4.37598 22.1719L4.7627 22.8574C5.00879 22.9395 5.26074 23.0156 5.51855 23.0859C5.77637 23.1562 6.03418 23.2207 6.29199 23.2793C6.40918 23.2559 6.54395 23.2324 6.69629 23.209C6.84863 23.1738 7.00684 23.1387 7.1709 23.1035C7.33496 23.0566 7.49316 23.0098 7.64551 22.9629C7.80957 22.916 7.94434 22.8691 8.0498 22.8223C8.28418 22.7285 8.55371 22.5938 8.8584 22.418C9.16309 22.2305 9.4209 22.0664 9.63184 21.9258C10.0068 21.6914 10.3877 21.4512 10.7744 21.2051C11.1611 20.959 11.5303 20.7012 11.8818 20.4316C12.1162 20.2559 12.3623 20.0332 12.6201 19.7637C12.8779 19.4941 13.1182 19.2422 13.3408 19.0078C13.5752 18.7617 13.7803 18.5625 13.9561 18.4102C14.1436 18.2578 14.2725 18.1992 14.3428 18.2344ZM9.56152 9.91992C9.31543 10.3301 9.05176 10.7285 8.77051 11.1152C8.50098 11.4902 8.24902 11.8828 8.01465 12.293C7.93262 12.4336 7.8623 12.5801 7.80371 12.7324C7.74512 12.873 7.66895 13.0137 7.5752 13.1543C7.49316 13.2832 7.40527 13.4121 7.31152 13.541C7.21777 13.6699 7.13574 13.8105 7.06543 13.9629C6.9248 14.2324 6.7959 14.5195 6.67871 14.8242C6.57324 15.1172 6.45605 15.4043 6.32715 15.6855C6.18652 15.9668 6.02246 16.2305 5.83496 16.4766C5.64746 16.7227 5.47754 16.9863 5.3252 17.2676L5.04395 17.8301C5.02051 17.8887 4.99707 17.9355 4.97363 17.9707C4.9502 17.9941 4.92676 18.0352 4.90332 18.0938C4.85645 18.2227 4.83301 18.3633 4.83301 18.5156C4.83301 18.668 4.81543 18.8086 4.78027 18.9375C4.74512 19.0781 4.69238 19.2129 4.62207 19.3418C4.55176 19.4707 4.4873 19.5996 4.42871 19.7285C4.37012 19.8574 4.32324 19.9922 4.28809 20.1328C4.25293 20.2617 4.21191 20.3906 4.16504 20.5195C4.25879 20.4258 4.3584 20.3438 4.46387 20.2734C4.58105 20.1914 4.69238 20.1035 4.79785 20.0098C4.90332 19.9043 5.00293 19.793 5.09668 19.6758C5.19043 19.5586 5.2959 19.4531 5.41309 19.3594C5.51855 19.2656 5.62988 19.1836 5.74707 19.1133C5.87598 19.0312 5.99902 18.9492 6.11621 18.8672C6.30371 18.6094 6.46777 18.3457 6.6084 18.0762C6.67871 17.9473 6.7373 17.8008 6.78418 17.6367C6.84277 17.4727 6.91309 17.3262 6.99512 17.1973C7.06543 17.0684 7.15332 16.9453 7.25879 16.8281C7.37598 16.7109 7.47559 16.5879 7.55762 16.459C7.65137 16.3301 7.72754 16.1953 7.78613 16.0547C7.85645 15.9141 7.93262 15.7793 8.01465 15.6504C8.17871 15.3926 8.36035 15.1465 8.55957 14.9121L8.64746 13.8047L9.28027 13.0664L9.36816 12.3984L9.80762 11.7832L9.86035 10.7988L9.56152 9.91992ZM24.0283 18.4805C24.0752 18.6562 24.0576 18.8086 23.9756 18.9375C23.8936 19.0547 23.7822 19.1602 23.6416 19.2539C23.5127 19.3477 23.3662 19.4355 23.2021 19.5176C23.0498 19.5879 22.9209 19.6699 22.8154 19.7637C22.2881 19.8809 21.8076 19.9688 21.374 20.0273C20.9521 20.0742 20.4834 20.1387 19.9678 20.2207C19.8154 20.2441 19.6689 20.2441 19.5283 20.2207C19.3994 20.1855 19.2646 20.1738 19.124 20.1855C19.042 20.1855 18.9658 20.1855 18.8955 20.1855C18.8252 20.1738 18.7549 20.1738 18.6846 20.1855C18.415 20.209 18.2393 20.3027 18.1572 20.4668C18.0752 20.6191 18.0049 20.8008 17.9463 21.0117C17.8994 21.2109 17.835 21.4043 17.7529 21.5918C17.6826 21.7676 17.5244 21.8906 17.2783 21.9609C17.2549 22.0195 17.2607 22.0723 17.2959 22.1191C17.3428 22.166 17.3779 22.207 17.4014 22.2422C17.2021 22.3008 17.0674 22.4062 16.9971 22.5586C16.9385 22.7109 16.8857 22.8633 16.8389 23.0156C16.792 23.168 16.7217 23.2969 16.6279 23.4023C16.5459 23.5078 16.3818 23.543 16.1357 23.5078C15.7725 23.8945 15.3447 24.2051 14.8525 24.4395C14.3604 24.6855 13.8506 24.8438 13.3232 24.9141C13.2295 24.8672 13.1357 24.8086 13.042 24.7383C12.96 24.668 12.8721 24.6035 12.7783 24.5449C12.6963 24.4863 12.6025 24.4395 12.4971 24.4043C12.4033 24.3809 12.292 24.3809 12.1631 24.4043C12.1514 24.1582 12.1045 23.9297 12.0225 23.7188C11.9287 23.5078 11.8115 23.3086 11.6709 23.1211C11.6475 22.9102 11.6768 22.7168 11.7588 22.541C11.8291 22.3535 11.9053 22.1719 11.9873 21.9961C12.0693 21.8203 12.1396 21.6445 12.1982 21.4688C12.2451 21.2812 12.2334 21.0703 12.1631 20.8359C12.2803 20.7656 12.3564 20.6836 12.3916 20.5898C12.4385 20.4961 12.4678 20.4023 12.4795 20.3086C12.5029 20.2031 12.5322 20.1094 12.5674 20.0273C12.6025 19.9336 12.6846 19.8574 12.8135 19.7988C12.7197 19.5176 12.7314 19.3125 12.8486 19.1836C12.9775 19.043 13.1299 18.9199 13.3057 18.8145C13.4814 18.709 13.6455 18.5918 13.7979 18.4629C13.9502 18.334 14.0088 18.1406 13.9736 17.8828C14.0439 17.8125 14.126 17.7539 14.2197 17.707C14.3135 17.6602 14.4014 17.6191 14.4834 17.584C14.5771 17.5371 14.665 17.4902 14.7471 17.4434C14.8291 17.3965 14.9053 17.332 14.9756 17.25C14.8936 17.1914 14.8525 17.1328 14.8525 17.0742C14.8643 17.0156 14.8818 16.957 14.9053 16.8984C14.9287 16.8281 14.9521 16.7578 14.9756 16.6875C15.0107 16.6172 15.0107 16.5469 14.9756 16.4766C15.292 16.5234 15.5674 16.4824 15.8018 16.3535C16.0479 16.2129 16.2764 16.0723 16.4873 15.9316C16.71 15.791 16.9326 15.6914 17.1553 15.6328C17.3779 15.5742 17.6357 15.6445 17.9287 15.8438C17.9521 15.9258 17.9873 16.0488 18.0342 16.2129C18.0928 16.3652 18.1455 16.5234 18.1924 16.6875C18.251 16.8516 18.3037 17.0098 18.3506 17.1621C18.3975 17.3145 18.4268 17.4258 18.4385 17.4961C18.4385 17.5547 18.4385 17.6484 18.4385 17.7773C18.4385 17.9062 18.4385 18.0469 18.4385 18.1992C18.4385 18.3398 18.4385 18.4746 18.4385 18.6035C18.4385 18.7324 18.4385 18.832 18.4385 18.9023C18.7783 19.1016 19.1182 19.2246 19.458 19.2715C19.7979 19.3066 20.1377 19.2246 20.4775 19.0254C20.6064 19.1426 20.7295 19.1777 20.8467 19.1309C20.9639 19.0723 21.0752 19.0078 21.1807 18.9375C21.2979 18.8672 21.415 18.832 21.5322 18.832C21.6494 18.8203 21.7666 18.9141 21.8838 19.1133C22.0479 18.9609 22.2178 18.8672 22.3936 18.832C22.5693 18.7852 22.751 18.7617 22.9385 18.7617C23.126 18.75 23.3076 18.7324 23.4834 18.709C23.6709 18.6855 23.8525 18.6094 24.0283 18.4805ZM17.2783 18.7793C17.2783 18.6035 17.3076 18.416 17.3662 18.2168C17.4248 18.0176 17.4717 17.8242 17.5068 17.6367C17.542 17.4375 17.5361 17.25 17.4893 17.0742C17.4541 16.8984 17.3428 16.7402 17.1553 16.5996C17.0264 16.6699 16.9209 16.7695 16.8389 16.8984C16.7568 17.0156 16.6748 17.1387 16.5928 17.2676C16.5107 17.3848 16.4111 17.4844 16.2939 17.5664C16.1885 17.6484 16.0479 17.6719 15.8721 17.6367C15.8135 17.7773 15.8135 17.8945 15.8721 17.9883C15.9307 18.0703 16.001 18.1523 16.083 18.2344C16.165 18.3047 16.2412 18.3809 16.3115 18.4629C16.3936 18.5449 16.4229 18.6504 16.3994 18.7793C16.4463 18.8145 16.5107 18.8496 16.5928 18.8848C16.6748 18.9082 16.7568 18.9258 16.8389 18.9375C16.9326 18.9375 17.0205 18.9258 17.1025 18.9023C17.1846 18.8789 17.2432 18.8379 17.2783 18.7793ZM17.1553 20.1855C16.9209 20.1855 16.7158 20.1328 16.54 20.0273C16.376 19.9102 16.2061 19.7812 16.0303 19.6406C15.8662 19.5 15.6904 19.3711 15.5029 19.2539C15.3271 19.125 15.1104 19.0488 14.8525 19.0254C14.7471 19.166 14.624 19.3008 14.4834 19.4297C14.3428 19.5469 14.2197 19.6758 14.1143 19.8164C14.0088 19.957 13.9326 20.1094 13.8857 20.2734C13.8506 20.4375 13.8799 20.625 13.9736 20.8359C13.7041 20.9648 13.5225 21.1523 13.4287 21.3984C13.335 21.6328 13.2705 21.8906 13.2354 22.1719C13.2119 22.4531 13.1885 22.7344 13.165 23.0156C13.1416 23.2969 13.0654 23.5488 12.9365 23.7715L13.3232 23.5078C13.3701 23.5312 13.4053 23.5664 13.4287 23.6133C13.4639 23.6602 13.4697 23.7129 13.4463 23.7715C13.54 23.6777 13.6455 23.6074 13.7627 23.5605C13.8799 23.502 13.9971 23.4609 14.1143 23.4375C14.2432 23.4023 14.3662 23.373 14.4834 23.3496C14.6123 23.3262 14.7354 23.291 14.8525 23.2441C15.1455 23.4082 15.3564 23.4434 15.4854 23.3496C15.6143 23.2559 15.7197 23.1152 15.8018 22.9277C15.8838 22.7402 15.9717 22.5469 16.0654 22.3477C16.1592 22.1367 16.3115 22.0078 16.5225 21.9609L16.3994 21.8379C16.5986 21.5918 16.7744 21.3398 16.9268 21.082C17.0908 20.8125 17.167 20.5137 17.1553 20.1855ZM34.417 18.9727C34.2881 19.1367 34.1885 19.3184 34.1182 19.5176C34.0479 19.7168 33.96 19.9043 33.8545 20.0801C33.7607 20.2559 33.6377 20.4023 33.4854 20.5195C33.3447 20.6367 33.1455 20.6895 32.8877 20.6777C32.7002 20.748 32.5596 20.877 32.4658 21.0645C32.3838 21.2402 32.3018 21.4219 32.2197 21.6094C32.1377 21.7852 32.0322 21.9316 31.9033 22.0488C31.7744 22.1543 31.5811 22.166 31.3232 22.084C30.9951 22.2246 30.6963 22.4121 30.4268 22.6465C30.1689 22.8691 29.9229 23.1035 29.6885 23.3496C29.6064 23.4316 29.5127 23.5371 29.4072 23.666C29.3018 23.7832 29.2021 23.8711 29.1084 23.9297C29.0264 23.9766 28.9443 23.9824 28.8623 23.9473C28.7803 23.9121 28.7041 23.877 28.6338 23.8418C28.5635 23.7949 28.4932 23.7715 28.4229 23.7715C28.3643 23.7715 28.3115 23.8242 28.2646 23.9297C28.3467 24.0938 28.3643 24.2051 28.3174 24.2637C28.2705 24.334 28.1943 24.3867 28.0889 24.4219C27.9834 24.457 27.8721 24.4863 27.7549 24.5098C27.6377 24.5332 27.5439 24.5742 27.4736 24.6328C27.333 24.7617 27.2334 24.9199 27.1748 25.1074C27.1162 25.2949 27.0635 25.4824 27.0166 25.6699C26.9697 25.8574 26.8994 26.0332 26.8057 26.1973C26.7236 26.373 26.583 26.5078 26.3838 26.6016C26.501 26.6836 26.5479 26.7656 26.5244 26.8477C26.5127 26.9297 26.4834 27.0117 26.4365 27.0938C26.3896 27.1875 26.3545 27.2754 26.3311 27.3574C26.3193 27.4395 26.3662 27.5215 26.4717 27.6035C26.2959 27.8262 26.1377 28.0664 25.9971 28.3242C25.8682 28.582 25.7393 28.8398 25.6104 29.0977C25.4814 29.3672 25.3408 29.625 25.1885 29.8711C25.0479 30.1289 24.8662 30.3574 24.6436 30.5566L24.6963 30.9785C24.5205 30.9316 24.4092 30.9375 24.3623 30.9961C24.3271 31.0547 24.3096 31.1367 24.3096 31.2422C24.3096 31.3477 24.3096 31.4531 24.3096 31.5586C24.3213 31.6758 24.2861 31.7637 24.2041 31.8223C24.1689 31.8691 24.1279 31.9043 24.0811 31.9277C24.0459 31.9512 24.0107 31.9805 23.9756 32.0156C23.6006 32.2969 23.3428 32.6543 23.2021 33.0879C23.1787 33.1582 23.1611 33.2285 23.1494 33.2988C23.1377 33.3691 23.1201 33.4453 23.0967 33.5273C23.0381 33.6914 22.9443 33.8613 22.8154 34.0371C22.6865 34.2129 22.5459 34.3945 22.3936 34.582C22.2412 34.7695 22.0947 34.9629 21.9541 35.1621C21.8135 35.373 21.7021 35.584 21.6201 35.7949C21.4326 35.7715 21.2861 35.7891 21.1807 35.8477C21.0635 35.918 20.9697 36.0059 20.8994 36.1113C20.8291 36.2285 20.7705 36.3516 20.7236 36.4805C20.6768 36.6094 20.6182 36.7207 20.5479 36.8145C20.4658 36.9199 20.3662 36.9961 20.249 37.043C20.1201 37.1016 19.9561 37.1016 19.7568 37.043L18.9658 37.7637C18.8252 37.6816 18.6904 37.6641 18.5615 37.7109C18.4209 37.7578 18.2861 37.8223 18.1572 37.9043C18.0166 37.9863 17.8818 38.0508 17.7529 38.0977C17.6123 38.1445 17.4658 38.127 17.3135 38.0449C17.2314 38.1387 17.1611 38.1855 17.1025 38.1855C17.0439 38.1973 16.9736 38.1504 16.8916 38.0449L16.6279 38.3262C16.4873 38.209 16.3174 38.0977 16.1182 37.9922C15.9072 37.8984 15.7139 37.7871 15.5381 37.6582C15.3623 37.541 15.2217 37.4004 15.1162 37.2363C15.0107 37.084 14.9932 36.8848 15.0635 36.6387C15.04 36.5684 15.0049 36.4922 14.958 36.4102C14.8994 36.3281 14.8525 36.2402 14.8174 36.1465C14.7822 36.0645 14.7588 35.9766 14.7471 35.8828C14.7354 35.8008 14.7588 35.7246 14.8174 35.6543C14.7119 35.4551 14.6768 35.25 14.7119 35.0391C14.7354 34.8398 14.7764 34.6406 14.835 34.4414C14.8936 34.2422 14.9404 34.043 14.9756 33.8438C15.0107 33.6445 14.9756 33.4453 14.8701 33.2461C15.0107 33.1406 15.1162 33.0059 15.1865 32.8418C15.2451 32.6777 15.3037 32.5078 15.3623 32.332C15.4092 32.1562 15.4619 31.9863 15.5205 31.8223C15.5791 31.6582 15.6787 31.5234 15.8193 31.418L15.8018 31.1367C16.3525 30.5508 16.9385 30.0117 17.5596 29.5195C18.1689 29.0391 18.8604 28.6816 19.6338 28.4473C19.7861 28.1777 19.9854 27.9785 20.2314 27.8496C20.4775 27.7324 20.7295 27.6211 20.9873 27.5156C21.2334 27.4219 21.4619 27.2988 21.6729 27.1465C21.8838 27.0059 22.042 26.7773 22.1475 26.4609C22.2061 26.5898 22.2646 26.6426 22.3232 26.6191C22.3818 26.6074 22.4404 26.5781 22.499 26.5312C22.5693 26.4961 22.6338 26.4668 22.6924 26.4434C22.751 26.4316 22.8096 26.4844 22.8682 26.6016C22.9854 26.25 23.1729 25.9688 23.4307 25.7578C23.7002 25.5469 23.9932 25.3594 24.3096 25.1953C24.6377 25.043 24.9658 24.8906 25.2939 24.7383C25.6221 24.5977 25.9092 24.4219 26.1553 24.2109C26.4131 24 26.6064 23.7422 26.7354 23.4375C26.8643 23.1211 26.8936 22.7168 26.8232 22.2246C26.9287 22.1543 26.999 22.0664 27.0342 21.9609C27.0693 21.8438 27.0928 21.7266 27.1045 21.6094C27.1279 21.4922 27.1572 21.3867 27.1924 21.293C27.2275 21.1992 27.3037 21.1348 27.4209 21.0996C27.3389 20.9707 27.2393 20.9121 27.1221 20.9238C27.0049 20.9355 26.8818 20.9707 26.7529 21.0293C26.6357 21.0879 26.5244 21.1465 26.4189 21.2051C26.3135 21.2637 26.2256 21.2754 26.1553 21.2402C26.1201 21.4043 26.0439 21.5215 25.9268 21.5918C25.8213 21.6621 25.7041 21.7266 25.5752 21.7852C25.4463 21.832 25.3115 21.8848 25.1709 21.9434C25.0303 22.002 24.9189 22.0957 24.8369 22.2246C24.7314 22.1777 24.6318 22.2012 24.5381 22.2949C24.4561 22.377 24.3682 22.4707 24.2744 22.5762C24.1924 22.6699 24.0986 22.7402 23.9932 22.7871C23.8877 22.834 23.7646 22.7871 23.624 22.6465C23.5537 22.834 23.4365 22.957 23.2725 23.0156C23.1201 23.0742 22.9502 23.1035 22.7627 23.1035C22.5752 23.1035 22.3818 23.0918 22.1826 23.0684C21.9951 23.0449 21.8252 23.0508 21.6729 23.0859L21.374 22.7871C21.3506 22.8457 21.3154 22.8926 21.2686 22.9277C21.21 22.9629 21.1514 22.9688 21.0928 22.9453C20.999 22.7461 20.9111 22.5352 20.8291 22.3125C20.7354 22.0781 20.6768 21.8496 20.6533 21.627C20.6182 21.3926 20.6357 21.1699 20.7061 20.959C20.7764 20.7363 20.917 20.543 21.1279 20.3789C21.4561 19.7812 21.8838 19.3125 22.4111 18.9727C22.4697 19.0195 22.5342 19.0371 22.6045 19.0254C22.6748 19.002 22.7451 18.9727 22.8154 18.9375C22.8975 18.8906 22.9736 18.8438 23.0439 18.7969C23.1143 18.7383 23.1787 18.7031 23.2373 18.6914C23.2725 18.5625 23.3369 18.4395 23.4307 18.3223C23.5361 18.2051 23.6475 18.0996 23.7646 18.0059C23.8936 17.9121 24.0225 17.8301 24.1514 17.7598C24.292 17.6777 24.4209 17.6074 24.5381 17.5488C24.7607 17.4434 24.9658 17.3145 25.1533 17.1621C25.3525 16.998 25.5518 16.8457 25.751 16.7051C25.9502 16.5527 26.1553 16.4238 26.3662 16.3184C26.5771 16.2129 26.8174 16.1602 27.0869 16.1602L27.4033 16.4414C27.2041 16.5586 27.0283 16.7051 26.876 16.8809C26.7354 17.0449 26.5889 17.2148 26.4365 17.3906C26.2842 17.5547 26.1201 17.707 25.9443 17.8477C25.7686 17.9883 25.5518 18.082 25.2939 18.1289C25.083 18.5391 24.7959 18.8906 24.4326 19.1836C24.0811 19.4648 23.7178 19.7285 23.3428 19.9746C23.3428 20.1504 23.29 20.291 23.1846 20.3965C23.0791 20.502 22.9561 20.5957 22.8154 20.6777C22.6748 20.7598 22.5342 20.8359 22.3936 20.9062C22.2529 20.9648 22.1357 21.0469 22.042 21.1523C21.96 21.2461 21.9189 21.3691 21.9189 21.5215C21.9189 21.6621 21.9951 21.8496 22.1475 22.084C22.2881 22.0137 22.458 21.9668 22.6572 21.9434C22.8564 21.9199 23.0498 21.8906 23.2373 21.8555C23.4248 21.8086 23.5889 21.7441 23.7295 21.6621C23.8818 21.5684 23.9873 21.4277 24.0459 21.2402C24.21 21.0996 24.3857 21.0117 24.5732 20.9766C24.7607 20.9414 24.9541 20.9355 25.1533 20.959C25.54 20.5371 25.9268 20.1504 26.3135 19.7988C26.7119 19.4355 27.0869 19.0664 27.4385 18.6914C27.79 18.3164 28.1123 17.918 28.4053 17.4961C28.71 17.0625 28.9736 16.5645 29.1963 16.002C29.4307 15.9316 29.6416 15.9609 29.8291 16.0898C30.0166 16.2188 30.1514 16.3828 30.2334 16.582C30.21 16.7227 30.1689 16.8574 30.1104 16.9863C30.0635 17.1035 30.0166 17.2207 29.9697 17.3379C29.9346 17.4434 29.9053 17.5605 29.8818 17.6895C29.8701 17.8184 29.8936 17.9648 29.9521 18.1289C29.8584 18.1055 29.7822 18.1348 29.7236 18.2168C29.6768 18.2988 29.624 18.3691 29.5654 18.4277C29.6006 18.5801 29.5947 18.7207 29.5479 18.8496C29.501 18.9668 29.4424 19.084 29.3721 19.2012C29.3018 19.3066 29.2373 19.4238 29.1787 19.5527C29.1318 19.6816 29.1201 19.8223 29.1436 19.9746C28.9795 20.2793 28.8564 20.6016 28.7744 20.9414C28.7041 21.2695 28.6572 21.6035 28.6338 21.9434L28.9502 22.2246C29.1025 22.002 29.29 21.8438 29.5127 21.75C29.7471 21.6562 29.9814 21.5801 30.2158 21.5215C30.4502 21.4512 30.6787 21.375 30.9014 21.293C31.124 21.1992 31.3174 21.041 31.4814 20.8184C31.5518 20.4785 31.6982 20.2383 31.9209 20.0977C32.1436 19.9453 32.3779 19.8164 32.624 19.7109C32.8701 19.6055 33.1045 19.4883 33.3271 19.3594C33.5615 19.2188 33.7256 18.9961 33.8193 18.6914H34.2588C34.2354 18.75 34.2471 18.8027 34.2939 18.8496C34.3408 18.8965 34.3818 18.9375 34.417 18.9727ZM24.6963 26.7598C24.5791 26.8301 24.4502 26.8945 24.3096 26.9531C24.1689 27.0117 24.0283 27.0762 23.8877 27.1465C23.7471 27.2168 23.6182 27.2988 23.501 27.3926C23.3838 27.4863 23.2959 27.6035 23.2373 27.7441C23.1084 27.6738 22.9854 27.668 22.8682 27.7266C22.7627 27.7969 22.6572 27.873 22.5518 27.9551C22.4463 28.0488 22.335 28.125 22.2178 28.1836C22.1123 28.2422 21.9951 28.2363 21.8662 28.166C21.6436 28.3066 21.4326 28.459 21.2334 28.623C21.0225 28.7871 20.8115 28.9453 20.6006 29.0977C20.3896 29.2617 20.1729 29.4082 19.9502 29.5371C19.7158 29.6777 19.4697 29.7832 19.2119 29.8535C19.083 30.0645 18.9131 30.2285 18.7021 30.3457C18.4912 30.4746 18.2803 30.5977 18.0693 30.7148C17.8467 30.832 17.6475 30.9727 17.4717 31.1367C17.2959 31.3008 17.1846 31.5293 17.1377 31.8223C16.7744 32.0566 16.5283 32.3555 16.3994 32.7188C16.2588 33.0938 16.1826 33.4863 16.1709 33.8965C16.1592 34.3184 16.1768 34.7402 16.2236 35.1621C16.2705 35.5957 16.2939 35.9883 16.2939 36.3398C16.4463 36.5156 16.5986 36.6387 16.751 36.709C16.9033 36.7793 17.0615 36.8145 17.2256 36.8145C17.3896 36.8145 17.5596 36.791 17.7354 36.7441C17.8994 36.709 18.0811 36.6738 18.2803 36.6387C18.3271 36.4629 18.415 36.3457 18.5439 36.2871C18.6611 36.2402 18.79 36.2051 18.9307 36.1816C19.0596 36.1582 19.1826 36.123 19.2998 36.0762C19.4053 36.041 19.4639 35.9473 19.4756 35.7949L19.6338 35.9355C19.6455 35.748 19.6982 35.5898 19.792 35.4609C19.8857 35.3438 19.9971 35.2324 20.126 35.127C20.2549 35.0215 20.3955 34.9219 20.5479 34.8281C20.6885 34.7344 20.8115 34.6289 20.917 34.5117C20.8936 34.2891 20.9346 34.1016 21.04 33.9492C21.1455 33.7969 21.2627 33.6562 21.3916 33.5273C21.5205 33.3984 21.6377 33.2578 21.7432 33.1055C21.8369 32.9531 21.8721 32.7598 21.8486 32.5254C21.9658 32.4785 22.0479 32.4023 22.0947 32.2969C22.1416 32.1914 22.1885 32.0918 22.2354 31.998C22.2822 31.9043 22.3408 31.834 22.4111 31.7871C22.4932 31.7402 22.6162 31.752 22.7803 31.8223C22.6162 31.6934 22.5459 31.5938 22.5693 31.5234C22.6045 31.4531 22.6631 31.3887 22.7451 31.3301C22.8271 31.2832 22.9033 31.2246 22.9736 31.1543C23.0439 31.084 23.0439 30.9785 22.9736 30.8379C23.2549 30.7207 23.4365 30.5508 23.5186 30.3281C23.6006 30.1055 23.6592 29.8652 23.6943 29.6074C23.7412 29.3613 23.8057 29.1152 23.8877 28.8691C23.9697 28.6348 24.1514 28.4473 24.4326 28.3066C24.4092 28.0957 24.4443 27.9082 24.5381 27.7441C24.6436 27.5918 24.7432 27.4453 24.8369 27.3047C24.9424 27.1641 25.0127 27.0176 25.0479 26.8652C25.0947 26.7129 25.0537 26.5312 24.9248 26.3203L24.6963 26.7598ZM45.3506 18.4805C45.3975 18.6562 45.3799 18.8086 45.2979 18.9375C45.2158 19.0547 45.1045 19.1602 44.9639 19.2539C44.835 19.3477 44.6885 19.4355 44.5244 19.5176C44.3721 19.5879 44.2432 19.6699 44.1377 19.7637C43.6104 19.8809 43.1299 19.9688 42.6963 20.0273C42.2744 20.0742 41.8057 20.1387 41.29 20.2207C41.1377 20.2441 40.9912 20.2441 40.8506 20.2207C40.7217 20.1855 40.5869 20.1738 40.4463 20.1855C40.3643 20.1855 40.2881 20.1855 40.2178 20.1855C40.1475 20.1738 40.0771 20.1738 40.0068 20.1855C39.7373 20.209 39.5615 20.3027 39.4795 20.4668C39.3975 20.6191 39.3271 20.8008 39.2686 21.0117C39.2217 21.2109 39.1572 21.4043 39.0752 21.5918C39.0049 21.7676 38.8467 21.8906 38.6006 21.9609C38.5771 22.0195 38.583 22.0723 38.6182 22.1191C38.665 22.166 38.7002 22.207 38.7236 22.2422C38.5244 22.3008 38.3896 22.4062 38.3193 22.5586C38.2607 22.7109 38.208 22.8633 38.1611 23.0156C38.1143 23.168 38.0439 23.2969 37.9502 23.4023C37.8682 23.5078 37.7041 23.543 37.458 23.5078C37.0947 23.8945 36.667 24.2051 36.1748 24.4395C35.6826 24.6855 35.1729 24.8438 34.6455 24.9141C34.5518 24.8672 34.458 24.8086 34.3643 24.7383C34.2822 24.668 34.1943 24.6035 34.1006 24.5449C34.0186 24.4863 33.9248 24.4395 33.8193 24.4043C33.7256 24.3809 33.6143 24.3809 33.4854 24.4043C33.4736 24.1582 33.4268 23.9297 33.3447 23.7188C33.251 23.5078 33.1338 23.3086 32.9932 23.1211C32.9697 22.9102 32.999 22.7168 33.0811 22.541C33.1514 22.3535 33.2275 22.1719 33.3096 21.9961C33.3916 21.8203 33.4619 21.6445 33.5205 21.4688C33.5674 21.2812 33.5557 21.0703 33.4854 20.8359C33.6025 20.7656 33.6787 20.6836 33.7139 20.5898C33.7607 20.4961 33.79 20.4023 33.8018 20.3086C33.8252 20.2031 33.8545 20.1094 33.8896 20.0273C33.9248 19.9336 34.0068 19.8574 34.1357 19.7988C34.042 19.5176 34.0537 19.3125 34.1709 19.1836C34.2998 19.043 34.4521 18.9199 34.6279 18.8145C34.8037 18.709 34.9678 18.5918 35.1201 18.4629C35.2725 18.334 35.3311 18.1406 35.2959 17.8828C35.3662 17.8125 35.4482 17.7539 35.542 17.707C35.6357 17.6602 35.7236 17.6191 35.8057 17.584C35.8994 17.5371 35.9873 17.4902 36.0693 17.4434C36.1514 17.3965 36.2275 17.332 36.2979 17.25C36.2158 17.1914 36.1748 17.1328 36.1748 17.0742C36.1865 17.0156 36.2041 16.957 36.2275 16.8984C36.251 16.8281 36.2744 16.7578 36.2979 16.6875C36.333 16.6172 36.333 16.5469 36.2979 16.4766C36.6143 16.5234 36.8896 16.4824 37.124 16.3535C37.3701 16.2129 37.5986 16.0723 37.8096 15.9316C38.0322 15.791 38.2549 15.6914 38.4775 15.6328C38.7002 15.5742 38.958 15.6445 39.251 15.8438C39.2744 15.9258 39.3096 16.0488 39.3564 16.2129C39.415 16.3652 39.4678 16.5234 39.5146 16.6875C39.5732 16.8516 39.626 17.0098 39.6729 17.1621C39.7197 17.3145 39.749 17.4258 39.7607 17.4961C39.7607 17.5547 39.7607 17.6484 39.7607 17.7773C39.7607 17.9062 39.7607 18.0469 39.7607 18.1992C39.7607 18.3398 39.7607 18.4746 39.7607 18.6035C39.7607 18.7324 39.7607 18.832 39.7607 18.9023C40.1006 19.1016 40.4404 19.2246 40.7803 19.2715C41.1201 19.3066 41.46 19.2246 41.7998 19.0254C41.9287 19.1426 42.0518 19.1777 42.1689 19.1309C42.2861 19.0723 42.3975 19.0078 42.5029 18.9375C42.6201 18.8672 42.7373 18.832 42.8545 18.832C42.9717 18.8203 43.0889 18.9141 43.2061 19.1133C43.3701 18.9609 43.54 18.8672 43.7158 18.832C43.8916 18.7852 44.0732 18.7617 44.2607 18.7617C44.4482 18.75 44.6299 18.7324 44.8057 18.709C44.9932 18.6855 45.1748 18.6094 45.3506 18.4805ZM38.6006 18.7793C38.6006 18.6035 38.6299 18.416 38.6885 18.2168C38.7471 18.0176 38.7939 17.8242 38.8291 17.6367C38.8643 17.4375 38.8584 17.25 38.8115 17.0742C38.7764 16.8984 38.665 16.7402 38.4775 16.5996C38.3486 16.6699 38.2432 16.7695 38.1611 16.8984C38.0791 17.0156 37.9971 17.1387 37.915 17.2676C37.833 17.3848 37.7334 17.4844 37.6162 17.5664C37.5107 17.6484 37.3701 17.6719 37.1943 17.6367C37.1357 17.7773 37.1357 17.8945 37.1943 17.9883C37.2529 18.0703 37.3232 18.1523 37.4053 18.2344C37.4873 18.3047 37.5635 18.3809 37.6338 18.4629C37.7158 18.5449 37.7451 18.6504 37.7217 18.7793C37.7686 18.8145 37.833 18.8496 37.915 18.8848C37.9971 18.9082 38.0791 18.9258 38.1611 18.9375C38.2549 18.9375 38.3428 18.9258 38.4248 18.9023C38.5068 18.8789 38.5654 18.8379 38.6006 18.7793ZM38.4775 20.1855C38.2432 20.1855 38.0381 20.1328 37.8623 20.0273C37.6982 19.9102 37.5283 19.7812 37.3525 19.6406C37.1885 19.5 37.0127 19.3711 36.8252 19.2539C36.6494 19.125 36.4326 19.0488 36.1748 19.0254C36.0693 19.166 35.9463 19.3008 35.8057 19.4297C35.665 19.5469 35.542 19.6758 35.4365 19.8164C35.3311 19.957 35.2549 20.1094 35.208 20.2734C35.1729 20.4375 35.2021 20.625 35.2959 20.8359C35.0264 20.9648 34.8447 21.1523 34.751 21.3984C34.6572 21.6328 34.5928 21.8906 34.5576 22.1719C34.5342 22.4531 34.5107 22.7344 34.4873 23.0156C34.4639 23.2969 34.3877 23.5488 34.2588 23.7715L34.6455 23.5078C34.6924 23.5312 34.7275 23.5664 34.751 23.6133C34.7861 23.6602 34.792 23.7129 34.7686 23.7715C34.8623 23.6777 34.9678 23.6074 35.085 23.5605C35.2021 23.502 35.3193 23.4609 35.4365 23.4375C35.5654 23.4023 35.6885 23.373 35.8057 23.3496C35.9346 23.3262 36.0576 23.291 36.1748 23.2441C36.4678 23.4082 36.6787 23.4434 36.8076 23.3496C36.9365 23.2559 37.042 23.1152 37.124 22.9277C37.2061 22.7402 37.2939 22.5469 37.3877 22.3477C37.4814 22.1367 37.6338 22.0078 37.8447 21.9609L37.7217 21.8379C37.9209 21.5918 38.0967 21.3398 38.249 21.082C38.4131 20.8125 38.4893 20.5137 38.4775 20.1855Z" fill="#231F20"/>
</svg>
