<svg width="36" height="24" viewBox="0 0 36 24" fill="none" xmlns="http://www.w3.org/2000/svg">
<g filter="url(#filter0_d)">
<path d="M32.3122 3.21896C32.5218 2.51571 32.3122 2 31.3211 2H28.0379C27.2025 2 26.8207 2.44614 26.6111 2.93615C26.6111 2.93615 24.9418 7.04823 22.5764 9.7145C21.8128 10.4903 21.464 10.7353 21.0478 10.7353C20.8397 10.7353 20.5373 10.4903 20.5373 9.78709V3.21896C20.5373 2.37506 20.2963 2 19.6001 2H14.441C13.92 2 13.6056 2.39019 13.6056 2.76223C13.6056 3.56075 14.7883 3.74525 14.9096 5.99563V10.8775C14.9096 11.9467 14.7195 12.1418 14.3003 12.1418C13.1879 12.1418 10.4811 8.01462 8.87471 3.29004C8.56181 2.37204 8.24592 2.00151 7.40753 2.00151H4.12584C3.18714 2.00151 3 2.44766 3 2.93766C3 3.81785 4.11236 8.17342 8.18154 13.934C10.8943 17.8676 14.7135 20 18.1928 20C20.2783 20 20.5358 19.5266 20.5358 18.71V15.7367C20.5358 14.79 20.7349 14.5994 21.3951 14.5994C21.8802 14.5994 22.7156 14.8474 24.6634 16.7424C26.8881 18.9897 27.2564 19.9985 28.5065 19.9985H31.7882C32.7254 19.9985 33.194 19.5251 32.9245 18.5905C32.6295 17.6604 31.5666 16.3068 30.1563 14.7053C29.3898 13.7918 28.2445 12.8088 27.8956 12.3173C27.4091 11.6836 27.5498 11.4038 27.8956 10.8412C27.8971 10.8427 31.896 5.15325 32.3122 3.21896Z" fill="white"/>
</g>
<defs>
<filter id="filter0_d" x="0" y="0" width="36" height="24" filterUnits="userSpaceOnUse" color-interpolation-filters="sRGB">
<feFlood flood-opacity="0" result="BackgroundImageFix"/>
<feColorMatrix in="SourceAlpha" type="matrix" values="0 0 0 0 0 0 0 0 0 0 0 0 0 0 0 0 0 0 127 0"/>
<feOffset dy="1"/>
<feGaussianBlur stdDeviation="1.5"/>
<feColorMatrix type="matrix" values="0 0 0 0 0.562795 0 0 0 0 0.364827 0 0 0 0 0 0 0 0 0.49 0"/>
<feBlend mode="normal" in2="BackgroundImageFix" result="effect1_dropShadow"/>
<feBlend mode="normal" in="SourceGraphic" in2="effect1_dropShadow" result="shape"/>
</filter>
</defs>
</svg>
